<?xml version="1.0" encoding="utf-8"?>
<!-- Generator: Adobe Illustrator 28.0.0, SVG Export Plug-In . SVG Version: 6.00 Build 0)  -->
<svg version="1.1" xmlns="http://www.w3.org/2000/svg" xmlns:xlink="http://www.w3.org/1999/xlink" x="0px" y="0px"
	 viewBox="0 0 841.89 595.28" style="enable-background:new 0 0 841.89 595.28;" xml:space="preserve">
<style type="text/css">
	.st0{fill:none;stroke:#325A47;stroke-width:6;stroke-miterlimit:10;}
	.st1{font-family:'AdobeArabic-Regular';}
	.st2{font-size:60px;}
	.st3{fill:#325A47;}
	.st4{fill:#FFFFFF;}
	.st5{fill:#D9B549;}
</style>
<g id="Layer_1">
	<path class="st0" d="M392.91,345.55c-22.32,1.6-52.79,8.44-81.64,22.45c-4.8,2.33-33.94,24.58-25.12,41.91
		c2.43,4.79-0.26,21.19,72.33,29.09c59.87,6.51,103.11,2.54,139.1,0.1c18.27-1.24,59.16-11.06,63.85-29.19
		c3.91-15.11-18.62-30.79-32.45-37.42C480.33,349.19,415,343.97,392.91,345.55z"/>
	<text transform="matrix(1 0 0 1 241.7373 501.2017)" class="st1 st2">Help, stay and travel</text>
	<path class="st3" d="M507.77,150.66c0-48.39-39.22-87.61-87.61-87.61c-48.38,0-87.61,39.22-87.61,87.61
		c0,12.93,2.8,25.21,7.83,36.26l82.42,220.01l77.22-220.03l-0.08,0C504.97,175.85,507.77,163.58,507.77,150.66z"/>
	<polygon class="st4" points="438.38,201.7 401.94,201.7 410.07,129.65 430.38,129.65 	"/>
	<circle class="st4" cx="420.16" cy="133.99" r="20.46"/>
	<path class="st5" d="M616.88,326.26c29.45-23.83,35.92-64.66,14.44-91.2c-21.47-26.54-62.75-28.74-92.21-4.91
		c-7.87,6.37-14.1,13.95-18.59,22.15l-97.34,153.56l168.2-66l-0.03-0.04C600.3,337.13,609.01,332.63,616.88,326.26z"/>
</g>
<g id="Layer_2">
</g>
</svg>
